<?xml version="1.0" encoding="iso-8859-1"?>
<!-- Uploaded to: SVG Repo, www.svgrepo.com, Generator: SVG Repo Mixer Tools -->
<svg height="800px" width="800px" version="1.1" id="Layer_1" xmlns="http://www.w3.org/2000/svg" xmlns:xlink="http://www.w3.org/1999/xlink" 
	 viewBox="0 0 512 512" xml:space="preserve">
<path style="fill:#7F7C79;" d="M220.69,256h70.621V150.069H220.69V256z"/>
<g>
	<path style="fill:#565656;" d="M220.69,256v229.517c0,15.007,11.476,26.483,26.483,26.483h17.655
		c15.007,0,26.483-11.476,26.483-26.483V256H220.69z"/>
	<path style="fill:#565656;" d="M361.931,150.069H150.069c-9.71,0-17.655-7.945-17.655-17.655V44.138
		c0-9.71,7.945-17.655,17.655-17.655h211.862c9.71,0,17.655,7.945,17.655,17.655v88.276
		C379.586,142.124,371.641,150.069,361.931,150.069"/>
</g>
<g>
	<path style="fill:#7F7C79;" d="M220.69,26.483h70.621V0H220.69V26.483z"/>
	<path style="fill:#7F7C79;" d="M220.69,476.69h26.483v-17.655H220.69V476.69z"/>
	<path style="fill:#7F7C79;" d="M220.69,441.379h26.483v-17.655H220.69V441.379z"/>
</g>
</svg>